<svg width="72" height="69" viewBox="0 0 72 69" fill="none" xmlns="http://www.w3.org/2000/svg">
<path d="M21.089 0.374146C9.55307 0.374146 0.166626 9.23408 0.166626 20.1193V48.3198C0.166626 59.2036 9.55861 68.0596 21.0974 68.0596H50.9914C62.5288 68.0596 71.9166 59.1996 71.9166 48.3145V20.1113C71.9166 9.22886 62.5246 0.374146 50.9858 0.374146H21.089ZM57.5666 11.2038C59.1509 11.2038 60.4366 12.4167 60.4366 13.9112C60.4366 15.4057 59.1509 16.6187 57.5666 16.6187C55.9824 16.6187 54.6966 15.4057 54.6966 13.9112C54.6966 12.4167 55.9824 11.2038 57.5666 11.2038ZM36.0416 16.6187C46.3306 16.6187 54.6966 24.5108 54.6966 34.2169C54.6966 43.923 46.3291 51.8151 36.0416 51.8151C25.7527 51.8151 17.3866 43.9216 17.3866 34.2169C17.3866 24.5121 25.7527 16.6187 36.0416 16.6187ZM36.0416 22.0335C28.9082 22.0335 23.1266 27.4876 23.1266 34.2169C23.1266 40.9462 28.9082 46.4002 36.0416 46.4002C43.175 46.4002 48.9566 40.9462 48.9566 34.2169C48.9566 27.4876 43.175 22.0335 36.0416 22.0335Z" fill="#D9AFD9"/>
</svg>
