<svg width="77" height="68" viewBox="0 0 77 68" fill="none" xmlns="http://www.w3.org/2000/svg">
<path d="M64.0828 0.374146H12.9277C5.86509 0.374146 0.138916 5.41834 0.138916 11.6398V56.7024C0.138916 62.9238 5.86509 67.968 12.9277 67.968H64.0828C71.1454 67.968 76.8716 62.9238 76.8716 56.7024V11.6398C76.8716 5.41834 71.1454 0.374146 64.0828 0.374146ZM25.7165 55.2942H17.7235V27.1301H25.7165V55.2942ZM25.7628 21.5099C24.7285 22.4393 23.3793 22.9054 21.72 22.9054C20.0798 22.9054 18.7386 22.4252 17.6931 21.4648C16.6476 20.5044 16.1249 19.3258 16.1249 17.9317C16.1249 16.4953 16.6476 15.3237 17.6931 14.414C18.7386 13.5028 20.0798 13.048 21.72 13.048C23.3793 13.048 24.7285 13.5028 25.7628 14.4125C26.7971 15.3223 27.3151 16.4953 27.3151 17.9317C27.3151 19.3877 26.7971 20.5805 25.7628 21.5099ZM62.4842 55.2942H54.4912V39.6448C54.4912 35.2808 51.6361 32.7629 48.0968 32.7629C46.3911 32.7629 44.4616 33.6754 43.357 34.8315C42.2523 35.9877 41.7024 37.4536 41.7024 39.2322V55.2942H33.7094V27.1301H41.7024V31.5856H41.8271C44.1803 28.1566 47.6028 26.4541 52.0997 26.4429C58.4877 26.426 62.4842 30.6506 62.4842 38.0493V55.2942Z" fill="#D9AFD9"/>
</svg>
