<svg width="83" height="69" viewBox="0 0 83 69" fill="none" xmlns="http://www.w3.org/2000/svg">
<path d="M82.3854 8.37721C79.382 9.74564 76.1524 10.6579 72.7454 11.089C76.2096 8.97461 78.874 5.60211 80.1246 1.6175C76.8836 3.57155 73.2934 5.00618 69.4729 5.76249C66.4222 2.43708 62.0707 0.374146 57.25 0.374146C47.9891 0.374146 40.484 8.02554 40.484 17.4588C40.484 18.7934 40.6356 20.0942 40.9218 21.3566C26.9904 20.6371 14.6345 13.8274 6.36807 3.49209C4.91569 6.01705 4.09864 8.97461 4.09864 12.0955C4.09864 18.0268 7.05205 23.2474 11.5551 26.3242C8.80635 26.2373 6.21926 25.4516 3.95412 24.1906C3.95412 24.2421 3.95412 24.3186 3.95412 24.3907C3.95412 32.6792 9.73501 39.5802 17.3976 41.1517C15.9967 41.546 14.5171 41.7653 12.9918 41.7653C11.9086 41.7653 10.854 41.6387 9.83232 41.4504C11.9658 48.2233 18.156 53.1747 25.4894 53.3203C19.7514 57.895 12.5253 60.6348 4.66671 60.6348C3.30877 60.6348 1.98232 60.5553 0.670166 60.392C8.09232 65.2256 16.9082 68.0596 26.3708 68.0596C57.2056 68.0596 74.0733 42.0213 74.0733 19.4335C74.0733 18.6934 74.0504 17.9562 74.016 17.2278C77.3086 14.8382 80.1446 11.8218 82.3854 8.37721Z" fill="#D9AFD9"/>
</svg>
